<?xml version="1.0" standalone="no"?><!DOCTYPE svg PUBLIC "-//W3C//DTD SVG 1.1//EN" "http://www.w3.org/Graphics/SVG/1.1/DTD/svg11.dtd"><svg t="1537944915018" class="icon" style="" viewBox="0 0 1024 1024" version="1.1" xmlns="http://www.w3.org/2000/svg" p-id="2094" xmlns:xlink="http://www.w3.org/1999/xlink" width="200" height="200"><defs><style type="text/css"></style></defs><path d="M684.2368 401.65376 437.82144 401.65376c-6.18496 0-11.20256 5.49376-11.20256 12.2624s5.0176 12.2624 11.20256 12.2624l246.41024 0c6.18496 0 11.20256-5.49376 11.20256-12.2624S690.42176 401.65376 684.2368 401.65376L684.2368 401.65376 684.2368 401.65376zM353.05472 413.91104c0 6.76864 4.38784 12.2624 9.8048 12.2624l29.42976 0c5.41696 0 9.80992-5.49376 9.80992-12.2624s-4.38784-12.2624-9.80992-12.2624l-29.42976 0C357.44256 401.65376 353.05472 407.14752 353.05472 413.91104L353.05472 413.91104 353.05472 413.91104zM684.2368 536.51968 437.82144 536.51968c-6.18496 0-11.20256 5.49376-11.20256 12.26752 0 6.76352 5.0176 12.2624 11.20256 12.2624l246.41024 0c6.18496 0 11.20256-5.49376 11.20256-12.2624C695.43936 542.01344 690.42176 536.51968 684.2368 536.51968L684.2368 536.51968 684.2368 536.51968zM392.28928 536.51968l-29.42976 0c-5.41696 0-9.8048 5.49376-9.8048 12.26752 0 6.76352 4.38784 12.2624 9.8048 12.2624l29.42976 0c5.41696 0 9.80992-5.49376 9.80992-12.2624C402.0992 542.01344 397.70624 536.51968 392.28928 536.51968L392.28928 536.51968 392.28928 536.51968zM684.2368 671.39584 437.82144 671.39584c-6.18496 0-11.20256 5.48864-11.20256 12.2624 0 6.76352 5.0176 12.2624 11.20256 12.2624l246.41024 0c6.18496 0 11.20256-5.49376 11.20256-12.2624C695.43936 676.88448 690.42176 671.39584 684.2368 671.39584L684.2368 671.39584 684.2368 671.39584zM392.28928 671.39584l-29.42976 0c-5.41696 0-9.8048 5.48864-9.8048 12.2624 0 6.76352 4.38784 12.2624 9.8048 12.2624l29.42976 0c5.41696 0 9.80992-5.49376 9.80992-12.2624C402.0992 676.88448 397.70624 671.39584 392.28928 671.39584L392.28928 671.39584 392.28928 671.39584zM438.42048 315.82208l171.65312 0c13.52192 0 24.51968-10.99264 24.51968-24.51968L634.59328 229.99552c0-13.52192-10.99776-24.51968-24.51968-24.51968L438.42048 205.47584c-13.52704 0-24.5248 10.99776-24.5248 24.51968l0 61.30688C413.89568 304.82432 424.89344 315.82208 438.42048 315.82208L438.42048 315.82208 438.42048 315.82208zM438.42048 229.99552l171.65312 0 0.01024 61.30688L438.42048 291.3024 438.42048 229.99552 438.42048 229.99552 438.42048 229.99552zM757.20704 205.47584l-98.08384 0 0 24.51968 98.08384 0c20.28544 0 36.7872 16.50176 36.7872 36.7872l0 490.4448c0 20.28032-16.50176 36.77696-36.7872 36.77696l-465.92 0c-20.28032 0-36.78208-16.49664-36.78208-36.77696l0-490.4448c0-20.28032 16.50176-36.7872 36.78208-36.7872l98.08384 0 0-24.51968L291.28704 205.47584c-33.80224 0-61.30688 27.50464-61.30688 61.30688l0 490.4448c0 33.80224 27.50464 61.30176 61.30688 61.30176l465.92 0c33.80224 0 61.30688-27.49952 61.30688-61.30176l0-490.4448C818.5088 232.97536 791.00416 205.47584 757.20704 205.47584L757.20704 205.47584 757.20704 205.47584zM998.17984 512c0 266.57792-216.10496 482.68288-482.67776 482.68288C248.91904 994.67776 32.8192 778.5728 32.8192 512c0-266.5728 216.10496-482.67776 482.68288-482.67776C782.07488 29.32224 998.17984 245.42208 998.17984 512L998.17984 512z" fill="#409EFF" p-id="2095"></path></svg>